<svg xmlns="http://www.w3.org/2000/svg" version="1.1" xmlns:xlink="http://www.w3.org/1999/xlink" xmlns:svgjs="http://svgjs.dev/svgjs" width="128" height="128" viewBox="0 0 128 128"><g transform="matrix(0.8046875,0,0,0.8046875,12.333870967741937,12.333870967741937)"><svg viewBox="0 0 155 155" data-background-color="#000000" preserveAspectRatio="xMidYMid meet" height="128" width="128" xmlns="http://www.w3.org/2000/svg" xmlns:xlink="http://www.w3.org/1999/xlink"><g id="tight-bounds" transform="matrix(1,0,0,1,0.25,0.25)"><svg viewBox="0 0 154.5 154.5" height="154.5" width="154.5"><g><svg></svg></g><g><svg viewBox="0 0 154.5 154.5" height="154.5" width="154.5"><mask id="af7b8872-e933-4ce9-9ffd-56ff1a67d299"><rect width="250" height="250" fill="white"></rect><g transform="matrix(1,0,0,1,48.11506437644343,43.83165)"><svg viewBox="0 0 58.26987124711315 66.8367" height="66.8367" width="58.26987124711315"><g><svg viewBox="0 0 58.26987124711315 66.8367" height="66.8367" width="58.26987124711315"><g><svg viewBox="0 0 58.26987124711315 66.8367" height="66.8367" width="58.26987124711315"><g id="SvgjsG1590"><svg viewBox="0 0 58.26987124711315 66.8367" height="66.8367" width="58.26987124711315" id="SvgjsSvg1589"><g><svg viewBox="0 0 58.26987124711315 66.8367" height="66.8367" width="58.26987124711315"><g transform="matrix(1,0,0,1,0,0)"><svg width="58.26987124711315" viewBox="-2.5 -40.1 38.75 44.300000000000004" height="66.8367" data-palette-color="#ffffff"><path d="M6.6 0.2L6.6 0.2Q4.75 0.2 3.23-1.3 1.7-2.8 1.7-6.05L1.7-6.05Q1.7-9.3 2.33-12.33 2.95-15.35 3.78-18.15 4.6-20.95 5.23-23.48 5.85-26 5.85-28.25L5.85-28.25Q5.1-28.55 4.45-28.55L4.45-28.55Q3.55-28.55 2.95-28 2.35-27.45 2-26.5L2-26.5 1.5-26.65Q1.55-30.15 2.53-32.23 3.5-34.3 5.05-35.2 6.6-36.1 8.25-36.1L8.25-36.1Q10.75-36.1 12.73-34.48 14.7-32.85 16.28-30.05 17.85-27.25 19.03-23.73 20.2-20.2 21.05-16.38 21.9-12.55 22.4-8.85L22.4-8.85Q22.7-10.85 23.03-13.75 23.35-16.65 23.6-19.85 23.85-23.05 23.85-25.95L23.85-25.95Q23.85-28.05 23.7-29.78 23.55-31.5 23.2-32.75L23.2-32.75 23.2-33.15Q24.5-34.6 25.83-35.35 27.15-36.1 28.3-36.1L28.3-36.1Q30-36.1 31.13-34.63 32.25-33.15 32.25-30.45L32.25-30.45Q32.25-28.45 31.7-25.58 31.15-22.7 30.4-19.45 29.65-16.2 29.08-13.08 28.5-9.95 28.45-7.45L28.45-7.45Q28.45-6.75 28.55-5.95 28.65-5.15 29.6-5.15L29.6-5.15Q29.65-4.95 29.65-4.85 29.65-4.75 29.65-4.65L29.65-4.65Q29.6-2.75 28.1-1.28 26.6 0.2 24.1 0.2L24.1 0.2Q22.15 0.2 20.8-0.8 19.45-1.8 18.55-3.48 17.65-5.15 17.03-7.28 16.4-9.4 15.85-11.65L15.85-11.65Q14.85-15.55 13.78-19.07 12.7-22.6 10.9-25.55L10.9-25.55Q11-23.55 10.75-21.18 10.5-18.8 10.23-16.38 9.95-13.95 9.95-11.7L9.95-11.7Q9.95-9.7 10.3-8.03 10.65-6.35 11.55-5.05L11.55-5.05Q11.55-2.6 10-1.2 8.45 0.2 6.6 0.2Z" opacity="1" transform="matrix(1,0,0,1,0,0)" fill="black" class="wordmark-text-0" id="SvgjsPath1588" stroke-width="7" stroke="black" stroke-linejoin="round"></path></svg></g></svg></g></svg></g></svg></g></svg></g></svg></g></mask><g transform="matrix(1,0,0,1,48.11506437644343,43.83165)"><svg viewBox="0 0 58.26987124711315 66.8367" height="66.8367" width="58.26987124711315"><g><svg viewBox="0 0 58.26987124711315 66.8367" height="66.8367" width="58.26987124711315"><g><svg viewBox="0 0 58.26987124711315 66.8367" height="66.8367" width="58.26987124711315"><g id="textblocktransform"><svg viewBox="0 0 58.26987124711315 66.8367" height="66.8367" width="58.26987124711315" id="textblock"><g><svg viewBox="0 0 58.26987124711315 66.8367" height="66.8367" width="58.26987124711315"><g transform="matrix(1,0,0,1,0,0)"><svg width="58.26987124711315" viewBox="-2.5 -40.1 38.75 44.300000000000004" height="66.8367" data-palette-color="#ffffff"><path d="M6.6 0.2L6.6 0.2Q4.75 0.2 3.23-1.3 1.7-2.8 1.7-6.05L1.7-6.05Q1.7-9.3 2.33-12.33 2.95-15.35 3.78-18.15 4.6-20.95 5.23-23.48 5.85-26 5.85-28.25L5.85-28.25Q5.1-28.55 4.45-28.55L4.45-28.55Q3.55-28.55 2.95-28 2.35-27.45 2-26.5L2-26.5 1.5-26.65Q1.55-30.15 2.53-32.23 3.5-34.3 5.05-35.2 6.6-36.1 8.25-36.1L8.25-36.1Q10.75-36.1 12.73-34.48 14.7-32.85 16.28-30.05 17.85-27.25 19.03-23.73 20.2-20.2 21.05-16.38 21.9-12.55 22.4-8.85L22.4-8.85Q22.7-10.85 23.03-13.75 23.35-16.65 23.6-19.85 23.85-23.05 23.85-25.95L23.85-25.95Q23.85-28.05 23.7-29.78 23.55-31.5 23.2-32.75L23.2-32.75 23.2-33.15Q24.5-34.6 25.83-35.35 27.15-36.1 28.3-36.1L28.3-36.1Q30-36.1 31.13-34.63 32.25-33.15 32.25-30.45L32.25-30.45Q32.25-28.45 31.7-25.58 31.15-22.7 30.4-19.45 29.65-16.2 29.08-13.08 28.5-9.95 28.45-7.45L28.45-7.45Q28.45-6.75 28.55-5.95 28.65-5.15 29.6-5.15L29.6-5.15Q29.65-4.95 29.65-4.85 29.65-4.75 29.65-4.65L29.65-4.65Q29.6-2.75 28.1-1.28 26.6 0.2 24.1 0.2L24.1 0.2Q22.15 0.2 20.8-0.8 19.45-1.8 18.55-3.48 17.65-5.15 17.03-7.28 16.4-9.4 15.85-11.65L15.85-11.65Q14.85-15.55 13.78-19.07 12.7-22.6 10.9-25.55L10.9-25.55Q11-23.55 10.75-21.18 10.5-18.8 10.23-16.38 9.95-13.95 9.95-11.7L9.95-11.7Q9.95-9.7 10.3-8.03 10.65-6.35 11.55-5.05L11.55-5.05Q11.55-2.6 10-1.2 8.45 0.2 6.6 0.2Z" opacity="1" transform="matrix(1,0,0,1,0,0)" fill="#ffffff" class="wordmark-text-0" data-fill-palette-color="primary" id="text-0"></path></svg></g></svg></g></svg></g></svg></g></svg></g></svg></g><g mask="url(#af7b8872-e933-4ce9-9ffd-56ff1a67d299)"><g transform="matrix(1.559097461482625, 0, 0, 1.559097461482625, 18.24907476511303, 1)"><svg xmlns="http://www.w3.org/2000/svg" xmlns:xlink="http://www.w3.org/1999/xlink" version="1.1" x="0" y="0" viewBox="12.983 1 75.68599999999999 97.813" enable-background="new 0 0 100 100" xml:space="preserve" height="97.813" width="75.68599999999999" class="icon-none" data-fill-palette-color="accent" id="none"></svg></g></g></svg></g><defs></defs><mask id="d61ec22e-a493-4c6f-a82b-33f4098a5300"><g id="SvgjsG1610"><svg viewBox="0 0 154.5 154.5" height="154.5" width="154.5"><g><svg></svg></g><g><svg viewBox="0 0 154.5 154.5" height="154.5" width="154.5"><mask id="SvgjsMask1609"><rect width="250" height="250" fill="black"></rect><g transform="matrix(1,0,0,1,48.11506437644343,43.83165)"><svg viewBox="0 0 58.26987124711315 66.8367" height="66.8367" width="58.26987124711315"><g><svg viewBox="0 0 58.26987124711315 66.8367" height="66.8367" width="58.26987124711315"><g><svg viewBox="0 0 58.26987124711315 66.8367" height="66.8367" width="58.26987124711315"><g id="SvgjsG1608"><svg viewBox="0 0 58.26987124711315 66.8367" height="66.8367" width="58.26987124711315" id="SvgjsSvg1607"><g><svg viewBox="0 0 58.26987124711315 66.8367" height="66.8367" width="58.26987124711315"><g transform="matrix(1,0,0,1,0,0)"><svg width="58.26987124711315" viewBox="-2.5 -40.1 38.75 44.300000000000004" height="66.8367" data-palette-color="#ffffff"><path d="M6.6 0.2L6.6 0.2Q4.75 0.2 3.23-1.3 1.7-2.8 1.7-6.05L1.7-6.05Q1.7-9.3 2.33-12.33 2.95-15.35 3.78-18.15 4.6-20.95 5.23-23.48 5.85-26 5.85-28.25L5.85-28.25Q5.1-28.55 4.45-28.55L4.45-28.55Q3.55-28.55 2.95-28 2.35-27.45 2-26.5L2-26.5 1.5-26.65Q1.55-30.15 2.53-32.23 3.5-34.3 5.05-35.2 6.6-36.1 8.25-36.1L8.25-36.1Q10.75-36.1 12.73-34.48 14.7-32.85 16.28-30.05 17.85-27.25 19.03-23.73 20.2-20.2 21.05-16.38 21.9-12.55 22.4-8.85L22.4-8.85Q22.7-10.85 23.03-13.75 23.35-16.65 23.6-19.85 23.85-23.05 23.85-25.95L23.85-25.95Q23.85-28.05 23.7-29.78 23.55-31.5 23.2-32.75L23.2-32.75 23.2-33.15Q24.5-34.6 25.83-35.35 27.15-36.1 28.3-36.1L28.3-36.1Q30-36.1 31.13-34.63 32.25-33.15 32.25-30.45L32.25-30.45Q32.25-28.45 31.7-25.58 31.15-22.7 30.4-19.45 29.65-16.2 29.08-13.08 28.5-9.95 28.45-7.45L28.45-7.45Q28.45-6.75 28.55-5.95 28.65-5.15 29.6-5.15L29.6-5.15Q29.65-4.95 29.65-4.85 29.65-4.75 29.65-4.65L29.65-4.65Q29.6-2.75 28.1-1.28 26.6 0.2 24.1 0.2L24.1 0.2Q22.15 0.2 20.8-0.8 19.45-1.8 18.55-3.48 17.65-5.15 17.03-7.28 16.4-9.4 15.85-11.65L15.85-11.65Q14.85-15.55 13.78-19.07 12.7-22.6 10.9-25.55L10.9-25.55Q11-23.55 10.75-21.18 10.5-18.8 10.23-16.38 9.95-13.95 9.95-11.7L9.95-11.7Q9.95-9.7 10.3-8.03 10.65-6.35 11.55-5.05L11.55-5.05Q11.55-2.6 10-1.2 8.45 0.2 6.6 0.2Z" opacity="1" transform="matrix(1,0,0,1,0,0)" fill="black" class="wordmark-text-0" id="SvgjsPath1606" stroke-width="7" stroke="black" stroke-linejoin="round"></path></svg></g></svg></g></svg></g></svg></g></svg></g></svg></g></mask><g transform="matrix(1,0,0,1,48.11506437644343,43.83165)"><svg viewBox="0 0 58.26987124711315 66.8367" height="66.8367" width="58.26987124711315"><g><svg viewBox="0 0 58.26987124711315 66.8367" height="66.8367" width="58.26987124711315"><g><svg viewBox="0 0 58.26987124711315 66.8367" height="66.8367" width="58.26987124711315"><g id="SvgjsG1605"><svg viewBox="0 0 58.26987124711315 66.8367" height="66.8367" width="58.26987124711315" id="SvgjsSvg1604"><g><svg viewBox="0 0 58.26987124711315 66.8367" height="66.8367" width="58.26987124711315"><g transform="matrix(1,0,0,1,0,0)"><svg width="58.26987124711315" viewBox="-2.5 -40.1 38.75 44.300000000000004" height="66.8367" data-palette-color="#ffffff"><path d="M6.6 0.2L6.6 0.2Q4.75 0.2 3.23-1.3 1.7-2.8 1.7-6.05L1.7-6.05Q1.7-9.3 2.33-12.33 2.95-15.35 3.78-18.15 4.6-20.95 5.23-23.48 5.85-26 5.85-28.25L5.85-28.25Q5.1-28.55 4.45-28.55L4.45-28.55Q3.55-28.55 2.95-28 2.35-27.45 2-26.5L2-26.5 1.5-26.65Q1.55-30.15 2.53-32.23 3.5-34.3 5.05-35.2 6.6-36.1 8.25-36.1L8.25-36.1Q10.75-36.1 12.73-34.48 14.7-32.85 16.28-30.05 17.85-27.25 19.03-23.73 20.2-20.2 21.05-16.38 21.9-12.55 22.4-8.85L22.4-8.85Q22.7-10.85 23.03-13.75 23.35-16.65 23.6-19.85 23.85-23.05 23.85-25.95L23.85-25.95Q23.85-28.05 23.7-29.78 23.55-31.5 23.2-32.75L23.2-32.75 23.2-33.15Q24.5-34.6 25.83-35.35 27.15-36.1 28.3-36.1L28.3-36.1Q30-36.1 31.13-34.63 32.25-33.15 32.25-30.45L32.25-30.45Q32.25-28.45 31.7-25.58 31.15-22.7 30.4-19.45 29.65-16.2 29.08-13.08 28.5-9.95 28.45-7.45L28.45-7.45Q28.45-6.75 28.55-5.95 28.65-5.15 29.6-5.15L29.6-5.15Q29.65-4.95 29.65-4.85 29.65-4.75 29.65-4.65L29.65-4.65Q29.6-2.75 28.1-1.28 26.6 0.2 24.1 0.2L24.1 0.2Q22.15 0.2 20.8-0.8 19.45-1.8 18.55-3.48 17.65-5.15 17.03-7.28 16.4-9.4 15.85-11.65L15.85-11.65Q14.85-15.55 13.78-19.07 12.7-22.6 10.9-25.55L10.9-25.55Q11-23.55 10.75-21.18 10.5-18.8 10.23-16.38 9.95-13.95 9.95-11.7L9.95-11.7Q9.95-9.7 10.3-8.03 10.65-6.35 11.55-5.05L11.55-5.05Q11.55-2.6 10-1.2 8.45 0.2 6.6 0.2Z" opacity="1" transform="matrix(1,0,0,1,0,0)" fill="black" class="wordmark-text-0" id="SvgjsPath1603"></path></svg></g></svg></g></svg></g></svg></g></svg></g></svg></g><g mask="url(#af7b8872-e933-4ce9-9ffd-56ff1a67d299)"><g transform="matrix(1.559097461482625, 0, 0, 1.559097461482625, 18.24907476511303, 1)"><svg xmlns="http://www.w3.org/2000/svg" xmlns:xlink="http://www.w3.org/1999/xlink" version="1.1" x="0" y="0" viewBox="12.983 1 75.68599999999999 97.813" enable-background="new 0 0 100 100" xml:space="preserve" height="97.813" width="75.68599999999999" class="icon-none" data-fill-palette-color="accent" id="SvgjsSvg1602"><g fill="white"><polygon fill-rule="evenodd" clip-rule="evenodd" points="12.983,10.59 30.001,98.813 24.129,39.764 53.15,37.872 53.096,27.989    64.549,1 53.622,18.977  " fill="white"></polygon><polygon fill-rule="evenodd" clip-rule="evenodd" points="59.389,54.548 64.549,1.007 55.809,40.723 36.197,41.768 37.767,62.23    30.001,98.813 42.058,58.914  " fill="white"></polygon><polygon fill-rule="evenodd" clip-rule="evenodd" points="62.8,67.182 63.349,56.729 47.37,60.484 47.338,72.281 30.001,98.813    51.681,71.197  " fill="white"></polygon><polygon fill-rule="evenodd" clip-rule="evenodd" points="65.711,62.394 80.552,57.663 82.061,45.131 66.162,47.226  " fill="white"></polygon><polygon fill-rule="evenodd" clip-rule="evenodd" points="72.07,44.502 83.058,43.085 84.639,32.807 76.56,32.434 64.549,1    72.979,31.967  " fill="white"></polygon><polygon fill-rule="evenodd" clip-rule="evenodd" points="87.413,31.294 88.669,21.788 79.125,19.094 64.549,1 79.032,23.437    78.61,30.437  " fill="white"></polygon></g></svg></g></g></svg></g><defs><mask></mask></defs></svg><rect width="154.5" height="154.5" fill="black" stroke="none" visibility="hidden"></rect></g></mask><linearGradient x1="0" x2="1" y1="0.548" y2="0.55" id="e4003a01-03ec-4fe8-944b-69516a878cc1"><stop stop-color="#ff6cab" offset="0"></stop><stop stop-color="#7366ff" offset="1"></stop></linearGradient><rect width="154.5" height="154.5" fill="url(#e4003a01-03ec-4fe8-944b-69516a878cc1)" mask="url(#d61ec22e-a493-4c6f-a82b-33f4098a5300)" data-fill-palette-color="accent"></rect></svg><rect width="154.5" height="154.5" fill="none" stroke="none" visibility="hidden"></rect></g></svg></g></svg>