<svg xmlns="http://www.w3.org/2000/svg" version="1.1" xmlns:xlink="http://www.w3.org/1999/xlink" xmlns:svgjs="http://svgjs.dev/svgjs" width="1500" height="939" viewBox="0 0 1500 939"><g transform="matrix(1,0,0,1,-0.9090909090909918,-1.5145161290323017)"><svg viewBox="0 0 396 248" data-background-color="#000000" preserveAspectRatio="xMidYMid meet" height="939" width="1500" xmlns="http://www.w3.org/2000/svg" xmlns:xlink="http://www.w3.org/1999/xlink"><g id="tight-bounds" transform="matrix(1,0,0,1,0.2400000000000091,0.4000000000000057)"><svg viewBox="0 0 395.52 247.2" height="247.2" width="395.52"><g><svg></svg></g><g><svg viewBox="0 0 395.52 247.2" height="247.2" width="395.52"><mask id="57e72462-cf26-475e-9b46-b448cb9b8add"><rect width="640" height="400" fill="white"></rect><g transform="matrix(1,0,0,1,39.55199999999999,81.04683035163478)"><svg viewBox="0 0 316.416 85.10633929673041" height="85.10633929673041" width="316.416"><g><svg viewBox="0 0 316.416 85.10633929673041" height="85.10633929673041" width="316.416"><g><svg viewBox="0 0 316.416 85.10633929673041" height="85.10633929673041" width="316.416"><g id="SvgjsG1004"><svg viewBox="0 0 316.416 85.10633929673041" height="85.10633929673041" width="316.416" id="SvgjsSvg1003"><g><svg viewBox="0 0 316.416 85.10633929673041" height="85.10633929673041" width="316.416"><g transform="matrix(1,0,0,1,0,0)"><svg width="316.416" viewBox="-2.5 -40.3 163.09 44.599999999999994" height="85.10633929673041" data-palette-color="#ffffff"><path d="M6.6 0.2L6.6 0.2Q4.75 0.2 3.23-1.3 1.7-2.8 1.7-6.05L1.7-6.05Q1.7-9.3 2.33-12.33 2.95-15.35 3.78-18.15 4.6-20.95 5.23-23.48 5.85-26 5.85-28.25L5.85-28.25Q5.1-28.55 4.45-28.55L4.45-28.55Q3.55-28.55 2.95-28 2.35-27.45 2-26.5L2-26.5 1.5-26.65Q1.55-30.15 2.53-32.23 3.5-34.3 5.05-35.2 6.6-36.1 8.25-36.1L8.25-36.1Q10.75-36.1 12.73-34.48 14.7-32.85 16.28-30.05 17.85-27.25 19.03-23.73 20.2-20.2 21.05-16.38 21.9-12.55 22.4-8.85L22.4-8.85Q22.7-10.85 23.03-13.75 23.35-16.65 23.6-19.85 23.85-23.05 23.85-25.95L23.85-25.95Q23.85-28.05 23.7-29.78 23.55-31.5 23.2-32.75L23.2-32.75 23.2-33.15Q24.5-34.6 25.83-35.35 27.15-36.1 28.3-36.1L28.3-36.1Q30-36.1 31.13-34.63 32.25-33.15 32.25-30.45L32.25-30.45Q32.25-28.45 31.7-25.58 31.15-22.7 30.4-19.45 29.65-16.2 29.08-13.08 28.5-9.95 28.45-7.45L28.45-7.45Q28.45-6.75 28.55-5.95 28.65-5.15 29.6-5.15L29.6-5.15Q29.65-4.95 29.65-4.85 29.65-4.75 29.65-4.65L29.65-4.65Q29.6-2.75 28.1-1.28 26.6 0.2 24.1 0.2L24.1 0.2Q22.15 0.2 20.8-0.8 19.45-1.8 18.55-3.48 17.65-5.15 17.03-7.28 16.4-9.4 15.85-11.65L15.85-11.65Q14.85-15.55 13.78-19.07 12.7-22.6 10.9-25.55L10.9-25.55Q11-23.55 10.75-21.18 10.5-18.8 10.23-16.38 9.95-13.95 9.95-11.7L9.95-11.7Q9.95-9.7 10.3-8.03 10.65-6.35 11.55-5.05L11.55-5.05Q11.55-2.6 10-1.2 8.45 0.2 6.6 0.2ZM39.8 0.25L39.8 0.25Q38.4 0.25 37.32-0.93 36.25-2.1 36.25-5.3L36.25-5.3Q36.25-5.85 36.27-6.28 36.3-6.7 36.3-6.9L36.3-6.9Q36.5-8.9 36.87-11.88 37.25-14.85 37.75-18.13 38.25-21.4 38.77-24.45 39.3-27.5 39.75-29.78 40.2-32.05 40.5-32.9L40.5-32.9Q41.05-34.4 42.47-35.27 43.9-36.15 45.4-36.15L45.4-36.15Q46.7-36.15 47.77-35.4 48.85-34.65 49.25-32.85L49.25-32.85Q48.95-31.85 48.3-29.33 47.65-26.8 46.9-23.15 46.15-19.5 45.47-15.1 44.8-10.7 44.4-5.9L44.4-5.9Q44.35-5.05 44.25-3.93 44.15-2.8 44.1-1.65L44.1-1.65Q43.5-1 42.3-0.38 41.1 0.25 39.8 0.25ZM60.65 0.3L60.65 0.3Q57.3 0.3 55.12-0.85 52.95-2 51.9-3.8 50.85-5.6 50.85-7.5L50.85-7.5Q50.85-9.35 51.75-11.03 52.65-12.7 54.32-13.8 56-14.9 58.3-14.9L58.3-14.9Q58.25-14.45 58.25-14.08 58.25-13.7 58.25-13.7L58.25-13.7Q58.25-10.35 58.9-8.43 59.55-6.5 60.55-5.68 61.55-4.85 62.6-4.85L62.6-4.85Q64.2-4.85 65.45-6.13 66.7-7.4 66.7-9.1L66.7-9.1Q66.7-11 65.07-12.45 63.45-13.9 60.95-15.65L60.95-15.65Q59.55-16.7 57.97-18.03 56.4-19.35 55.3-21.18 54.2-23 54.2-25.5L54.2-25.5Q54.2-28.1 55.42-30.1 56.65-32.1 58.67-33.48 60.7-34.85 63.12-35.58 65.55-36.3 67.95-36.3L67.95-36.3Q70.9-36.3 72.8-35.35 74.7-34.4 75.65-32.9 76.59-31.4 76.59-29.8L76.59-29.8Q76.59-28.3 75.77-26.93 74.95-25.55 73.34-24.7 71.75-23.85 69.4-23.85L69.4-23.85Q69.55-24.55 69.59-25.13 69.65-25.7 69.65-26.15L69.65-26.15Q69.65-28.65 68.57-29.73 67.5-30.8 66.2-30.8L66.2-30.8Q64.95-30.8 63.8-29.88 62.65-28.95 62.65-26.9L62.65-26.9Q62.65-25.15 63.57-23.9 64.5-22.65 65.97-21.7 67.45-20.75 69.09-19.85L69.09-19.85Q70.8-18.95 72.37-17.88 73.95-16.8 75-15.35 76.05-13.9 76.05-11.7L76.05-11.7Q76.05-9.4 74.8-7.23 73.55-5.05 71.4-3.38 69.25-1.7 66.47-0.7 63.7 0.3 60.65 0.3ZM83.49 0.2L83.49 0.2Q81.69 0.2 80.29-1.38 78.89-2.95 78.89-6.3L78.89-6.3Q78.89-8.65 79.52-11 80.14-13.35 80.79-15.3L80.79-15.3Q81.79-18.5 82.54-21.2 83.29-23.9 83.29-26.35L83.29-26.35Q83.29-28.05 82.92-28.7 82.54-29.35 81.94-29.35L81.94-29.35Q81.29-29.35 80.52-28.65 79.74-27.95 78.99-26.5L78.99-26.5 78.64-26.6Q78.74-29.5 79.89-31.6 81.04-33.7 82.79-34.85 84.54-36 86.39-36L86.39-36Q88.49-36 89.99-34.33 91.49-32.65 91.49-28.55L91.49-28.55Q91.49-26.4 91.07-24.05 90.64-21.7 90.09-19.35L90.09-19.35Q91.79-20.05 93.69-20.35 95.59-20.65 97.74-20.65L97.74-20.65 99.04-20.65Q99.69-23.15 100.17-25.58 100.64-28 100.64-30.1L100.64-30.1Q100.64-30.85 100.57-31.5 100.49-32.15 100.39-32.75L100.39-32.75 100.39-33.15Q101.14-34.5 102.57-35.3 103.99-36.1 105.44-36.1L105.44-36.1Q107.09-36.1 108.34-35.02 109.59-33.95 109.59-31.6L109.59-31.6Q109.59-29.85 108.92-27.1 108.24-24.35 107.39-21.45L107.39-21.45Q106.39-17.9 105.57-14.58 104.74-11.25 104.74-8.95L104.74-8.95Q104.74-7.4 105.24-6.5 105.74-5.6 106.84-5.6L106.84-5.6Q108.34-5.6 109.09-7.05L109.09-7.05 109.39-6.9Q109.34-4.8 108.24-3.2 107.14-1.6 105.52-0.7 103.89 0.2 102.19 0.2L102.19 0.2Q100.69 0.2 99.37-0.58 98.04-1.35 97.22-3 96.39-4.65 96.39-7.3L96.39-7.3Q96.39-9.05 96.77-11.13 97.14-13.2 97.64-15.35L97.64-15.35Q95.34-15.5 93.14-15.5L93.14-15.5Q92.04-15.5 91.04-15.45 90.04-15.4 89.14-15.3L89.14-15.3Q88.69-13.3 88.37-11.38 88.04-9.45 88.04-7.65L88.04-7.65Q88.04-6.65 88.17-5.68 88.29-4.7 88.59-3.8L88.59-3.8Q87.79-1.85 86.37-0.83 84.94 0.2 83.49 0.2ZM115.39 0.25L115.39 0.25Q113.99 0.25 112.92-0.93 111.84-2.1 111.84-5.3L111.84-5.3Q111.84-5.85 111.87-6.28 111.89-6.7 111.89-6.9L111.89-6.9Q112.09-8.9 112.47-11.88 112.84-14.85 113.34-18.13 113.84-21.4 114.37-24.45 114.89-27.5 115.34-29.78 115.79-32.05 116.09-32.9L116.09-32.9Q116.64-34.4 118.07-35.27 119.49-36.15 120.99-36.15L120.99-36.15Q122.29-36.15 123.37-35.4 124.44-34.65 124.84-32.85L124.84-32.85Q124.54-31.85 123.89-29.33 123.24-26.8 122.49-23.15 121.74-19.5 121.07-15.1 120.39-10.7 119.99-5.9L119.99-5.9Q119.94-5.05 119.84-3.93 119.74-2.8 119.69-1.65L119.69-1.65Q119.09-1 117.89-0.38 116.69 0.25 115.39 0.25ZM138.74 0.2L138.74 0.2Q137.19 0.2 136.01-0.6 134.84-1.4 134.89-3L134.89-3Q134.99-5.8 135.31-9.2 135.64-12.6 136.09-16.13 136.54-19.65 137.01-22.9 137.49-26.15 137.89-28.7L137.89-28.7Q136.99-28.8 136.14-28.85 135.29-28.9 134.59-28.9L134.59-28.9Q132.49-28.9 130.81-28.5 129.14-28.1 127.99-27.1L127.99-27.1Q127.99-30.25 128.51-32.23 129.04-34.2 130.46-35.1 131.89-36 134.64-36L134.64-36Q136.64-36 139.11-35.68 141.59-35.35 144.14-35 146.69-34.65 148.89-34.65L148.89-34.65Q150.69-34.65 152.11-35 153.54-35.35 154.29-36.25L154.29-36.25Q155.39-35.9 155.99-34.73 156.59-33.55 156.59-32.15L156.59-32.15Q156.59-30.9 156.04-29.73 155.49-28.55 154.29-27.78 153.09-27 151.04-27L151.04-27Q150.09-27 148.71-27.18 147.34-27.35 145.79-27.55L145.79-27.55Q145.24-24.55 144.66-20.38 144.09-16.2 143.71-11.4 143.34-6.6 143.24-1.65L143.24-1.65Q142.34-0.7 141.11-0.25 139.89 0.2 138.74 0.2Z" opacity="1" transform="matrix(1,0,0,1,0,0)" fill="black" class="wordmark-text-0" id="SvgjsPath1002" stroke-width="7" stroke="black" stroke-linejoin="round"></path></svg></g></svg></g></svg></g></svg></g></svg></g></svg></g></mask><g transform="matrix(1,0,0,1,39.55199999999999,81.04683035163478)"><svg viewBox="0 0 316.416 85.10633929673041" height="85.10633929673041" width="316.416"><g><svg viewBox="0 0 316.416 85.10633929673041" height="85.10633929673041" width="316.416"><g><svg viewBox="0 0 316.416 85.10633929673041" height="85.10633929673041" width="316.416"><g id="textblocktransform"><svg viewBox="0 0 316.416 85.10633929673041" height="85.10633929673041" width="316.416" id="textblock"><g><svg viewBox="0 0 316.416 85.10633929673041" height="85.10633929673041" width="316.416"><g transform="matrix(1,0,0,1,0,0)"><svg width="316.416" viewBox="-2.5 -40.3 163.09 44.599999999999994" height="85.10633929673041" data-palette-color="#ffffff"><path d="M6.6 0.2L6.6 0.2Q4.75 0.2 3.23-1.3 1.7-2.8 1.7-6.05L1.7-6.05Q1.7-9.3 2.33-12.33 2.95-15.35 3.78-18.15 4.6-20.95 5.23-23.48 5.85-26 5.85-28.25L5.85-28.25Q5.1-28.55 4.45-28.55L4.45-28.55Q3.55-28.55 2.95-28 2.35-27.45 2-26.5L2-26.5 1.5-26.65Q1.55-30.15 2.53-32.23 3.5-34.3 5.05-35.2 6.6-36.1 8.25-36.1L8.25-36.1Q10.75-36.1 12.73-34.48 14.7-32.85 16.28-30.05 17.85-27.25 19.03-23.73 20.2-20.2 21.05-16.38 21.9-12.55 22.4-8.85L22.4-8.85Q22.7-10.85 23.03-13.75 23.35-16.65 23.6-19.85 23.85-23.05 23.85-25.95L23.85-25.95Q23.85-28.05 23.7-29.78 23.55-31.5 23.2-32.75L23.2-32.75 23.2-33.15Q24.5-34.6 25.83-35.35 27.15-36.1 28.3-36.1L28.3-36.1Q30-36.1 31.13-34.63 32.25-33.15 32.25-30.45L32.25-30.45Q32.25-28.45 31.7-25.58 31.15-22.7 30.4-19.45 29.65-16.2 29.08-13.08 28.5-9.95 28.45-7.45L28.45-7.45Q28.45-6.75 28.55-5.95 28.65-5.15 29.6-5.15L29.6-5.15Q29.65-4.95 29.65-4.85 29.65-4.75 29.65-4.65L29.65-4.65Q29.6-2.75 28.1-1.28 26.6 0.2 24.1 0.2L24.1 0.2Q22.15 0.2 20.8-0.8 19.45-1.8 18.55-3.48 17.65-5.15 17.03-7.28 16.4-9.4 15.85-11.65L15.85-11.65Q14.85-15.55 13.78-19.07 12.7-22.6 10.9-25.55L10.9-25.55Q11-23.55 10.75-21.18 10.5-18.8 10.23-16.38 9.95-13.95 9.95-11.7L9.95-11.7Q9.95-9.7 10.3-8.03 10.65-6.35 11.55-5.05L11.55-5.05Q11.55-2.6 10-1.2 8.45 0.2 6.6 0.2ZM39.8 0.25L39.8 0.25Q38.4 0.25 37.32-0.93 36.25-2.1 36.25-5.3L36.25-5.3Q36.25-5.85 36.27-6.28 36.3-6.7 36.3-6.9L36.3-6.9Q36.5-8.9 36.87-11.88 37.25-14.85 37.75-18.13 38.25-21.4 38.77-24.45 39.3-27.5 39.75-29.78 40.2-32.05 40.5-32.9L40.5-32.9Q41.05-34.4 42.47-35.27 43.9-36.15 45.4-36.15L45.4-36.15Q46.7-36.15 47.77-35.4 48.85-34.65 49.25-32.85L49.25-32.85Q48.95-31.85 48.3-29.33 47.65-26.8 46.9-23.15 46.15-19.5 45.47-15.1 44.8-10.7 44.4-5.9L44.4-5.9Q44.35-5.05 44.25-3.93 44.15-2.8 44.1-1.65L44.1-1.65Q43.5-1 42.3-0.38 41.1 0.25 39.8 0.25ZM60.65 0.3L60.65 0.3Q57.3 0.3 55.12-0.85 52.95-2 51.9-3.8 50.85-5.6 50.85-7.5L50.85-7.5Q50.85-9.35 51.75-11.03 52.65-12.7 54.32-13.8 56-14.9 58.3-14.9L58.3-14.9Q58.25-14.45 58.25-14.08 58.25-13.7 58.25-13.7L58.25-13.7Q58.25-10.35 58.9-8.43 59.55-6.5 60.55-5.68 61.55-4.85 62.6-4.85L62.6-4.85Q64.2-4.85 65.45-6.13 66.7-7.4 66.7-9.1L66.7-9.1Q66.7-11 65.07-12.45 63.45-13.9 60.95-15.65L60.95-15.65Q59.55-16.7 57.97-18.03 56.4-19.35 55.3-21.18 54.2-23 54.2-25.5L54.2-25.5Q54.2-28.1 55.42-30.1 56.65-32.1 58.67-33.48 60.7-34.85 63.12-35.58 65.55-36.3 67.95-36.3L67.95-36.3Q70.9-36.3 72.8-35.35 74.7-34.4 75.65-32.9 76.59-31.4 76.59-29.8L76.59-29.8Q76.59-28.3 75.77-26.93 74.95-25.55 73.34-24.7 71.75-23.85 69.4-23.85L69.4-23.85Q69.55-24.55 69.59-25.13 69.65-25.7 69.65-26.15L69.65-26.15Q69.65-28.65 68.57-29.73 67.5-30.8 66.2-30.8L66.2-30.8Q64.95-30.8 63.8-29.88 62.65-28.95 62.65-26.9L62.65-26.9Q62.65-25.15 63.57-23.9 64.5-22.65 65.97-21.7 67.45-20.75 69.09-19.85L69.09-19.85Q70.8-18.95 72.37-17.88 73.95-16.8 75-15.35 76.05-13.9 76.05-11.7L76.05-11.7Q76.05-9.4 74.8-7.23 73.55-5.05 71.4-3.38 69.25-1.7 66.47-0.7 63.7 0.3 60.65 0.3ZM83.49 0.2L83.49 0.2Q81.69 0.2 80.29-1.38 78.89-2.95 78.89-6.3L78.89-6.3Q78.89-8.65 79.52-11 80.14-13.35 80.79-15.3L80.79-15.3Q81.79-18.5 82.54-21.2 83.29-23.9 83.29-26.35L83.29-26.35Q83.29-28.05 82.92-28.7 82.54-29.35 81.94-29.35L81.94-29.35Q81.29-29.35 80.52-28.65 79.74-27.95 78.99-26.5L78.99-26.5 78.64-26.6Q78.74-29.5 79.89-31.6 81.04-33.7 82.79-34.85 84.54-36 86.39-36L86.39-36Q88.49-36 89.99-34.33 91.49-32.65 91.49-28.55L91.49-28.55Q91.49-26.4 91.07-24.05 90.64-21.7 90.09-19.35L90.09-19.35Q91.79-20.05 93.69-20.35 95.59-20.65 97.74-20.65L97.74-20.65 99.04-20.65Q99.69-23.15 100.17-25.58 100.64-28 100.64-30.1L100.64-30.1Q100.64-30.85 100.57-31.5 100.49-32.15 100.39-32.75L100.39-32.75 100.39-33.15Q101.14-34.5 102.57-35.3 103.99-36.1 105.44-36.1L105.44-36.1Q107.09-36.1 108.34-35.02 109.59-33.95 109.59-31.6L109.59-31.6Q109.59-29.85 108.92-27.1 108.24-24.35 107.39-21.45L107.39-21.45Q106.39-17.9 105.57-14.58 104.74-11.25 104.74-8.95L104.74-8.95Q104.74-7.4 105.24-6.5 105.74-5.6 106.84-5.6L106.84-5.6Q108.34-5.6 109.09-7.05L109.09-7.05 109.39-6.9Q109.34-4.8 108.24-3.2 107.14-1.6 105.52-0.7 103.89 0.2 102.19 0.2L102.19 0.2Q100.69 0.2 99.37-0.58 98.04-1.35 97.22-3 96.39-4.65 96.39-7.3L96.39-7.3Q96.39-9.05 96.77-11.13 97.14-13.2 97.64-15.35L97.64-15.35Q95.34-15.5 93.14-15.5L93.14-15.5Q92.04-15.5 91.04-15.45 90.04-15.4 89.14-15.3L89.14-15.3Q88.69-13.3 88.37-11.38 88.04-9.45 88.04-7.65L88.04-7.65Q88.04-6.65 88.17-5.68 88.29-4.7 88.59-3.8L88.59-3.8Q87.79-1.85 86.37-0.83 84.94 0.2 83.49 0.2ZM115.39 0.25L115.39 0.25Q113.99 0.25 112.92-0.93 111.84-2.1 111.84-5.3L111.84-5.3Q111.84-5.85 111.87-6.28 111.89-6.7 111.89-6.9L111.89-6.9Q112.09-8.9 112.47-11.88 112.84-14.85 113.34-18.13 113.84-21.4 114.37-24.45 114.89-27.5 115.34-29.78 115.79-32.05 116.09-32.9L116.09-32.9Q116.64-34.4 118.07-35.27 119.49-36.15 120.99-36.15L120.99-36.15Q122.29-36.15 123.37-35.4 124.44-34.65 124.84-32.85L124.84-32.85Q124.54-31.85 123.89-29.33 123.24-26.8 122.49-23.15 121.74-19.5 121.07-15.1 120.39-10.7 119.99-5.9L119.99-5.9Q119.94-5.05 119.84-3.93 119.74-2.8 119.69-1.65L119.69-1.65Q119.09-1 117.89-0.38 116.69 0.25 115.39 0.25ZM138.74 0.2L138.74 0.2Q137.19 0.2 136.01-0.6 134.84-1.4 134.89-3L134.89-3Q134.99-5.8 135.31-9.2 135.64-12.6 136.09-16.13 136.54-19.65 137.01-22.9 137.49-26.15 137.89-28.7L137.89-28.7Q136.99-28.8 136.14-28.85 135.29-28.9 134.59-28.9L134.59-28.9Q132.49-28.9 130.81-28.5 129.14-28.1 127.99-27.1L127.99-27.1Q127.99-30.25 128.51-32.23 129.04-34.2 130.46-35.1 131.89-36 134.64-36L134.64-36Q136.64-36 139.11-35.68 141.59-35.35 144.14-35 146.69-34.65 148.89-34.65L148.89-34.65Q150.69-34.65 152.11-35 153.54-35.35 154.29-36.25L154.29-36.25Q155.39-35.9 155.99-34.73 156.59-33.55 156.59-32.15L156.59-32.15Q156.59-30.9 156.04-29.73 155.49-28.55 154.29-27.78 153.09-27 151.04-27L151.04-27Q150.09-27 148.71-27.18 147.34-27.35 145.79-27.55L145.79-27.55Q145.24-24.55 144.66-20.38 144.09-16.2 143.71-11.4 143.34-6.6 143.24-1.65L143.24-1.65Q142.34-0.7 141.11-0.25 139.89 0.2 138.74 0.2Z" opacity="1" transform="matrix(1,0,0,1,0,0)" fill="#ffffff" class="wordmark-text-0" data-fill-palette-color="primary" id="text-0"></path></svg></g></svg></g></svg></g></svg></g></svg></g></svg></g><g mask="url(#57e72462-cf26-475e-9b46-b448cb9b8add)"><g transform="matrix(2.5068242462658334, 0, 0, 2.5068242462658334, 102.89425004856207, 1.0000000000000142)"><svg xmlns="http://www.w3.org/2000/svg" xmlns:xlink="http://www.w3.org/1999/xlink" version="1.1" x="0" y="0" viewBox="12.983 1 75.68599999999999 97.813" enable-background="new 0 0 100 100" xml:space="preserve" height="97.813" width="75.68599999999999" class="icon-none" data-fill-palette-color="accent" id="none"></svg></g></g></svg></g><defs></defs><mask id="2b937e03-37a1-45d4-bab0-215405f09a7f"><g id="SvgjsG1024"><svg viewBox="0 0 395.52 247.2" height="247.2" width="395.52"><g><svg></svg></g><g><svg viewBox="0 0 395.52 247.2" height="247.2" width="395.52"><mask id="SvgjsMask1023"><rect width="640" height="400" fill="black"></rect><g transform="matrix(1,0,0,1,39.55199999999999,81.04683035163478)"><svg viewBox="0 0 316.416 85.10633929673041" height="85.10633929673041" width="316.416"><g><svg viewBox="0 0 316.416 85.10633929673041" height="85.10633929673041" width="316.416"><g><svg viewBox="0 0 316.416 85.10633929673041" height="85.10633929673041" width="316.416"><g id="SvgjsG1022"><svg viewBox="0 0 316.416 85.10633929673041" height="85.10633929673041" width="316.416" id="SvgjsSvg1021"><g><svg viewBox="0 0 316.416 85.10633929673041" height="85.10633929673041" width="316.416"><g transform="matrix(1,0,0,1,0,0)"><svg width="316.416" viewBox="-2.5 -40.3 163.09 44.599999999999994" height="85.10633929673041" data-palette-color="#ffffff"><path d="M6.6 0.2L6.6 0.2Q4.75 0.2 3.23-1.3 1.7-2.8 1.7-6.05L1.7-6.05Q1.7-9.3 2.33-12.33 2.95-15.35 3.78-18.15 4.6-20.95 5.23-23.48 5.85-26 5.85-28.25L5.85-28.25Q5.1-28.55 4.45-28.55L4.45-28.55Q3.55-28.55 2.95-28 2.35-27.45 2-26.5L2-26.5 1.5-26.65Q1.55-30.15 2.53-32.23 3.5-34.3 5.05-35.2 6.6-36.1 8.25-36.1L8.25-36.1Q10.75-36.1 12.73-34.48 14.7-32.85 16.28-30.05 17.85-27.25 19.03-23.73 20.2-20.2 21.05-16.38 21.9-12.55 22.4-8.85L22.4-8.85Q22.7-10.85 23.03-13.75 23.35-16.65 23.6-19.85 23.85-23.05 23.85-25.95L23.85-25.95Q23.85-28.05 23.7-29.78 23.55-31.5 23.2-32.75L23.2-32.75 23.2-33.15Q24.5-34.6 25.83-35.35 27.15-36.1 28.3-36.1L28.3-36.1Q30-36.1 31.13-34.63 32.25-33.15 32.25-30.45L32.25-30.45Q32.25-28.45 31.7-25.58 31.15-22.7 30.4-19.45 29.65-16.2 29.08-13.08 28.5-9.95 28.45-7.45L28.45-7.45Q28.45-6.75 28.55-5.95 28.65-5.15 29.6-5.15L29.6-5.15Q29.65-4.95 29.65-4.85 29.65-4.75 29.65-4.65L29.65-4.65Q29.6-2.75 28.1-1.28 26.6 0.2 24.1 0.2L24.1 0.2Q22.15 0.2 20.8-0.8 19.45-1.8 18.55-3.48 17.65-5.15 17.03-7.28 16.4-9.4 15.85-11.65L15.85-11.65Q14.85-15.55 13.78-19.07 12.7-22.6 10.9-25.55L10.9-25.55Q11-23.55 10.75-21.18 10.5-18.8 10.23-16.38 9.95-13.95 9.95-11.7L9.95-11.7Q9.95-9.7 10.3-8.03 10.65-6.35 11.55-5.05L11.55-5.05Q11.55-2.6 10-1.2 8.45 0.2 6.6 0.2ZM39.8 0.25L39.8 0.25Q38.4 0.25 37.32-0.93 36.25-2.1 36.25-5.3L36.25-5.3Q36.25-5.85 36.27-6.28 36.3-6.7 36.3-6.9L36.3-6.9Q36.5-8.9 36.87-11.88 37.25-14.85 37.75-18.13 38.25-21.4 38.77-24.45 39.3-27.5 39.75-29.78 40.2-32.05 40.5-32.9L40.5-32.9Q41.05-34.4 42.47-35.27 43.9-36.15 45.4-36.15L45.4-36.15Q46.7-36.15 47.77-35.4 48.85-34.65 49.25-32.85L49.25-32.85Q48.95-31.85 48.3-29.33 47.65-26.8 46.9-23.15 46.15-19.5 45.47-15.1 44.8-10.7 44.4-5.9L44.4-5.9Q44.35-5.05 44.25-3.93 44.15-2.8 44.1-1.65L44.1-1.65Q43.5-1 42.3-0.38 41.1 0.25 39.8 0.25ZM60.65 0.3L60.65 0.3Q57.3 0.3 55.12-0.85 52.95-2 51.9-3.8 50.85-5.6 50.85-7.5L50.85-7.5Q50.85-9.35 51.75-11.03 52.65-12.7 54.32-13.8 56-14.9 58.3-14.9L58.3-14.9Q58.25-14.45 58.25-14.08 58.25-13.7 58.25-13.7L58.25-13.7Q58.25-10.35 58.9-8.43 59.55-6.5 60.55-5.68 61.55-4.85 62.6-4.85L62.6-4.85Q64.2-4.85 65.45-6.13 66.7-7.4 66.7-9.1L66.7-9.1Q66.7-11 65.07-12.45 63.45-13.9 60.95-15.65L60.95-15.65Q59.55-16.7 57.97-18.03 56.4-19.35 55.3-21.18 54.2-23 54.2-25.5L54.2-25.5Q54.2-28.1 55.42-30.1 56.65-32.1 58.67-33.48 60.7-34.85 63.12-35.58 65.55-36.3 67.95-36.3L67.95-36.3Q70.9-36.3 72.8-35.35 74.7-34.4 75.65-32.9 76.59-31.4 76.59-29.8L76.59-29.8Q76.59-28.3 75.77-26.93 74.95-25.55 73.34-24.7 71.75-23.85 69.4-23.85L69.4-23.85Q69.55-24.55 69.59-25.13 69.65-25.7 69.65-26.15L69.65-26.15Q69.65-28.65 68.57-29.73 67.5-30.8 66.2-30.8L66.2-30.8Q64.95-30.8 63.8-29.88 62.65-28.95 62.65-26.9L62.65-26.9Q62.65-25.15 63.57-23.9 64.5-22.65 65.97-21.7 67.45-20.75 69.09-19.85L69.09-19.85Q70.8-18.95 72.37-17.88 73.95-16.8 75-15.35 76.05-13.9 76.05-11.7L76.05-11.7Q76.05-9.4 74.8-7.23 73.55-5.05 71.4-3.38 69.25-1.7 66.47-0.7 63.7 0.3 60.65 0.3ZM83.49 0.2L83.49 0.2Q81.69 0.2 80.29-1.38 78.89-2.95 78.89-6.3L78.89-6.3Q78.89-8.65 79.52-11 80.14-13.35 80.79-15.3L80.79-15.3Q81.79-18.5 82.54-21.2 83.29-23.9 83.29-26.35L83.29-26.35Q83.29-28.05 82.92-28.7 82.54-29.35 81.94-29.35L81.94-29.35Q81.29-29.35 80.52-28.65 79.74-27.95 78.99-26.5L78.99-26.5 78.64-26.6Q78.74-29.5 79.89-31.6 81.04-33.7 82.79-34.85 84.54-36 86.39-36L86.39-36Q88.49-36 89.99-34.33 91.49-32.65 91.49-28.55L91.49-28.55Q91.49-26.4 91.07-24.05 90.64-21.7 90.09-19.35L90.09-19.35Q91.79-20.05 93.69-20.35 95.59-20.65 97.74-20.65L97.74-20.65 99.04-20.65Q99.69-23.15 100.17-25.58 100.64-28 100.64-30.1L100.64-30.1Q100.64-30.85 100.57-31.5 100.49-32.15 100.39-32.75L100.39-32.75 100.39-33.15Q101.14-34.5 102.57-35.3 103.99-36.1 105.44-36.1L105.44-36.1Q107.09-36.1 108.34-35.02 109.59-33.95 109.59-31.6L109.59-31.6Q109.59-29.85 108.92-27.1 108.24-24.35 107.39-21.45L107.39-21.45Q106.39-17.9 105.57-14.58 104.74-11.25 104.74-8.95L104.74-8.95Q104.74-7.4 105.24-6.5 105.74-5.6 106.84-5.6L106.84-5.6Q108.34-5.6 109.09-7.05L109.09-7.05 109.39-6.9Q109.34-4.8 108.24-3.2 107.14-1.6 105.52-0.7 103.89 0.2 102.19 0.2L102.19 0.2Q100.69 0.2 99.37-0.58 98.04-1.35 97.22-3 96.39-4.65 96.39-7.3L96.39-7.3Q96.39-9.05 96.77-11.13 97.14-13.2 97.64-15.35L97.64-15.35Q95.34-15.5 93.14-15.5L93.14-15.5Q92.04-15.5 91.04-15.45 90.04-15.4 89.14-15.3L89.14-15.3Q88.69-13.3 88.37-11.38 88.04-9.45 88.04-7.65L88.04-7.65Q88.04-6.65 88.17-5.68 88.29-4.7 88.59-3.8L88.59-3.8Q87.79-1.85 86.37-0.83 84.94 0.2 83.49 0.2ZM115.39 0.25L115.39 0.25Q113.99 0.25 112.92-0.93 111.84-2.1 111.84-5.3L111.84-5.3Q111.84-5.85 111.87-6.28 111.89-6.7 111.89-6.9L111.89-6.9Q112.09-8.9 112.47-11.88 112.84-14.85 113.34-18.13 113.84-21.4 114.37-24.45 114.89-27.5 115.34-29.78 115.79-32.05 116.09-32.9L116.09-32.9Q116.64-34.4 118.07-35.27 119.49-36.15 120.99-36.15L120.99-36.15Q122.29-36.15 123.37-35.4 124.44-34.65 124.84-32.85L124.84-32.85Q124.54-31.85 123.89-29.33 123.24-26.8 122.49-23.15 121.74-19.5 121.07-15.1 120.39-10.7 119.99-5.9L119.99-5.9Q119.94-5.05 119.84-3.93 119.74-2.8 119.69-1.65L119.69-1.65Q119.09-1 117.89-0.38 116.69 0.25 115.39 0.25ZM138.74 0.2L138.74 0.2Q137.19 0.2 136.01-0.6 134.84-1.4 134.89-3L134.89-3Q134.99-5.8 135.31-9.2 135.64-12.6 136.09-16.13 136.54-19.65 137.01-22.9 137.49-26.15 137.89-28.7L137.89-28.7Q136.99-28.8 136.14-28.85 135.29-28.9 134.59-28.9L134.59-28.9Q132.49-28.9 130.81-28.5 129.14-28.1 127.99-27.1L127.99-27.1Q127.99-30.25 128.51-32.23 129.04-34.2 130.46-35.1 131.89-36 134.64-36L134.64-36Q136.64-36 139.11-35.68 141.59-35.35 144.14-35 146.69-34.65 148.89-34.65L148.89-34.65Q150.69-34.65 152.11-35 153.54-35.35 154.29-36.25L154.29-36.25Q155.39-35.9 155.99-34.73 156.59-33.55 156.59-32.15L156.59-32.15Q156.59-30.9 156.04-29.73 155.49-28.55 154.29-27.78 153.09-27 151.04-27L151.04-27Q150.09-27 148.71-27.18 147.34-27.35 145.79-27.55L145.79-27.55Q145.24-24.55 144.66-20.38 144.09-16.2 143.71-11.4 143.34-6.6 143.24-1.65L143.24-1.65Q142.34-0.7 141.11-0.25 139.89 0.2 138.74 0.2Z" opacity="1" transform="matrix(1,0,0,1,0,0)" fill="black" class="wordmark-text-0" id="SvgjsPath1020" stroke-width="7" stroke="black" stroke-linejoin="round"></path></svg></g></svg></g></svg></g></svg></g></svg></g></svg></g></mask><g transform="matrix(1,0,0,1,39.55199999999999,81.04683035163478)"><svg viewBox="0 0 316.416 85.10633929673041" height="85.10633929673041" width="316.416"><g><svg viewBox="0 0 316.416 85.10633929673041" height="85.10633929673041" width="316.416"><g><svg viewBox="0 0 316.416 85.10633929673041" height="85.10633929673041" width="316.416"><g id="SvgjsG1019"><svg viewBox="0 0 316.416 85.10633929673041" height="85.10633929673041" width="316.416" id="SvgjsSvg1018"><g><svg viewBox="0 0 316.416 85.10633929673041" height="85.10633929673041" width="316.416"><g transform="matrix(1,0,0,1,0,0)"><svg width="316.416" viewBox="-2.5 -40.3 163.09 44.599999999999994" height="85.10633929673041" data-palette-color="#ffffff"><path d="M6.6 0.2L6.6 0.2Q4.75 0.2 3.23-1.3 1.7-2.8 1.7-6.05L1.7-6.05Q1.7-9.3 2.33-12.33 2.95-15.35 3.78-18.15 4.6-20.95 5.23-23.48 5.85-26 5.85-28.25L5.85-28.25Q5.1-28.55 4.45-28.55L4.45-28.55Q3.55-28.55 2.95-28 2.35-27.45 2-26.5L2-26.5 1.5-26.65Q1.55-30.15 2.53-32.23 3.5-34.3 5.05-35.2 6.6-36.1 8.25-36.1L8.25-36.1Q10.75-36.1 12.73-34.48 14.7-32.85 16.28-30.05 17.85-27.25 19.03-23.73 20.2-20.2 21.05-16.38 21.9-12.55 22.4-8.85L22.4-8.85Q22.7-10.85 23.03-13.75 23.35-16.65 23.6-19.85 23.85-23.05 23.85-25.95L23.85-25.95Q23.85-28.05 23.7-29.78 23.55-31.5 23.2-32.75L23.2-32.75 23.2-33.15Q24.5-34.6 25.83-35.35 27.15-36.1 28.3-36.1L28.3-36.1Q30-36.1 31.13-34.63 32.25-33.15 32.25-30.45L32.25-30.45Q32.25-28.45 31.7-25.58 31.15-22.7 30.4-19.45 29.65-16.2 29.08-13.08 28.5-9.95 28.45-7.45L28.45-7.45Q28.45-6.75 28.55-5.95 28.65-5.15 29.6-5.15L29.6-5.15Q29.65-4.95 29.65-4.85 29.65-4.75 29.65-4.65L29.65-4.65Q29.6-2.75 28.1-1.28 26.6 0.2 24.1 0.2L24.1 0.2Q22.15 0.2 20.8-0.8 19.45-1.8 18.55-3.48 17.65-5.15 17.03-7.28 16.4-9.4 15.85-11.65L15.85-11.65Q14.85-15.55 13.78-19.07 12.7-22.6 10.9-25.55L10.9-25.55Q11-23.55 10.75-21.18 10.5-18.8 10.23-16.38 9.95-13.95 9.95-11.7L9.95-11.7Q9.95-9.7 10.3-8.03 10.65-6.35 11.55-5.05L11.55-5.05Q11.55-2.6 10-1.2 8.45 0.2 6.6 0.2ZM39.8 0.25L39.8 0.25Q38.4 0.25 37.32-0.93 36.25-2.1 36.25-5.3L36.25-5.3Q36.25-5.85 36.27-6.28 36.3-6.7 36.3-6.9L36.3-6.9Q36.5-8.9 36.87-11.88 37.25-14.85 37.75-18.13 38.25-21.4 38.77-24.45 39.3-27.5 39.75-29.78 40.2-32.05 40.5-32.9L40.5-32.9Q41.05-34.4 42.47-35.27 43.9-36.15 45.4-36.15L45.4-36.15Q46.7-36.15 47.77-35.4 48.85-34.65 49.25-32.85L49.25-32.85Q48.95-31.85 48.3-29.33 47.65-26.8 46.9-23.15 46.15-19.5 45.47-15.1 44.8-10.7 44.4-5.9L44.4-5.9Q44.35-5.05 44.25-3.93 44.15-2.8 44.1-1.65L44.1-1.65Q43.5-1 42.3-0.38 41.1 0.25 39.8 0.25ZM60.65 0.3L60.65 0.3Q57.3 0.3 55.12-0.85 52.95-2 51.9-3.8 50.85-5.6 50.85-7.5L50.85-7.5Q50.85-9.35 51.75-11.03 52.65-12.7 54.32-13.8 56-14.9 58.3-14.9L58.3-14.9Q58.25-14.45 58.25-14.08 58.25-13.7 58.25-13.7L58.25-13.7Q58.25-10.35 58.9-8.43 59.55-6.5 60.55-5.68 61.55-4.85 62.6-4.85L62.6-4.85Q64.2-4.85 65.45-6.13 66.7-7.4 66.7-9.1L66.7-9.1Q66.7-11 65.07-12.45 63.45-13.9 60.95-15.65L60.95-15.65Q59.55-16.7 57.97-18.03 56.4-19.35 55.3-21.18 54.2-23 54.2-25.5L54.2-25.5Q54.2-28.1 55.42-30.1 56.65-32.1 58.67-33.48 60.7-34.85 63.12-35.58 65.55-36.3 67.95-36.3L67.95-36.3Q70.9-36.3 72.8-35.35 74.7-34.4 75.65-32.9 76.59-31.4 76.59-29.8L76.59-29.8Q76.59-28.3 75.77-26.93 74.95-25.55 73.34-24.7 71.75-23.85 69.4-23.85L69.4-23.85Q69.55-24.55 69.59-25.13 69.65-25.7 69.65-26.15L69.65-26.15Q69.65-28.65 68.57-29.73 67.5-30.8 66.2-30.8L66.2-30.8Q64.95-30.8 63.8-29.88 62.65-28.95 62.65-26.9L62.65-26.9Q62.65-25.15 63.57-23.9 64.5-22.65 65.97-21.7 67.45-20.75 69.09-19.85L69.09-19.85Q70.8-18.95 72.37-17.88 73.95-16.8 75-15.35 76.05-13.9 76.05-11.7L76.05-11.7Q76.05-9.4 74.8-7.23 73.55-5.05 71.4-3.38 69.25-1.7 66.47-0.7 63.7 0.3 60.65 0.3ZM83.49 0.2L83.49 0.2Q81.69 0.2 80.29-1.38 78.89-2.95 78.89-6.3L78.89-6.3Q78.89-8.65 79.52-11 80.14-13.35 80.79-15.3L80.79-15.3Q81.79-18.5 82.54-21.2 83.29-23.9 83.29-26.35L83.29-26.35Q83.29-28.05 82.92-28.7 82.54-29.35 81.94-29.35L81.94-29.35Q81.29-29.35 80.52-28.65 79.74-27.95 78.99-26.5L78.99-26.5 78.64-26.6Q78.74-29.5 79.89-31.6 81.04-33.7 82.79-34.85 84.54-36 86.39-36L86.39-36Q88.49-36 89.99-34.33 91.49-32.65 91.49-28.55L91.49-28.55Q91.49-26.4 91.07-24.05 90.64-21.7 90.09-19.35L90.09-19.35Q91.79-20.05 93.69-20.35 95.59-20.65 97.74-20.65L97.74-20.65 99.04-20.65Q99.69-23.15 100.17-25.58 100.64-28 100.64-30.1L100.64-30.1Q100.64-30.85 100.57-31.5 100.49-32.15 100.39-32.75L100.39-32.75 100.39-33.15Q101.14-34.5 102.57-35.3 103.99-36.1 105.44-36.1L105.44-36.1Q107.09-36.1 108.34-35.02 109.59-33.95 109.59-31.6L109.59-31.6Q109.59-29.85 108.92-27.1 108.24-24.35 107.39-21.45L107.39-21.45Q106.39-17.9 105.57-14.58 104.74-11.25 104.74-8.95L104.74-8.95Q104.74-7.4 105.24-6.5 105.74-5.6 106.84-5.6L106.84-5.6Q108.34-5.6 109.09-7.05L109.09-7.05 109.39-6.9Q109.34-4.8 108.24-3.2 107.14-1.6 105.52-0.7 103.89 0.2 102.19 0.2L102.19 0.2Q100.69 0.2 99.37-0.58 98.04-1.35 97.22-3 96.39-4.65 96.39-7.3L96.39-7.3Q96.39-9.05 96.77-11.13 97.14-13.2 97.64-15.35L97.64-15.35Q95.34-15.5 93.14-15.5L93.14-15.5Q92.04-15.5 91.04-15.45 90.04-15.4 89.14-15.3L89.14-15.3Q88.69-13.3 88.37-11.38 88.04-9.45 88.04-7.65L88.04-7.65Q88.04-6.65 88.17-5.68 88.29-4.7 88.59-3.8L88.59-3.8Q87.79-1.85 86.37-0.83 84.94 0.2 83.49 0.2ZM115.39 0.25L115.39 0.25Q113.99 0.25 112.92-0.93 111.84-2.1 111.84-5.3L111.84-5.3Q111.84-5.85 111.87-6.28 111.89-6.7 111.89-6.9L111.89-6.9Q112.09-8.9 112.47-11.88 112.84-14.85 113.34-18.13 113.84-21.4 114.37-24.45 114.89-27.5 115.34-29.78 115.79-32.05 116.09-32.9L116.09-32.9Q116.64-34.4 118.07-35.27 119.49-36.15 120.99-36.15L120.99-36.15Q122.29-36.15 123.37-35.4 124.44-34.65 124.84-32.85L124.84-32.85Q124.54-31.85 123.89-29.33 123.24-26.8 122.49-23.15 121.74-19.5 121.07-15.1 120.39-10.7 119.99-5.9L119.99-5.9Q119.94-5.05 119.84-3.93 119.74-2.8 119.69-1.65L119.69-1.65Q119.09-1 117.89-0.38 116.69 0.25 115.39 0.25ZM138.74 0.2L138.74 0.2Q137.19 0.2 136.01-0.6 134.84-1.4 134.89-3L134.89-3Q134.99-5.8 135.31-9.2 135.64-12.6 136.09-16.13 136.54-19.65 137.01-22.9 137.49-26.15 137.89-28.7L137.89-28.7Q136.99-28.8 136.14-28.85 135.29-28.9 134.59-28.9L134.59-28.9Q132.49-28.9 130.81-28.5 129.14-28.1 127.99-27.1L127.99-27.1Q127.99-30.25 128.51-32.23 129.04-34.2 130.46-35.1 131.89-36 134.64-36L134.64-36Q136.64-36 139.11-35.68 141.59-35.35 144.14-35 146.69-34.65 148.89-34.65L148.89-34.65Q150.69-34.65 152.11-35 153.54-35.35 154.29-36.25L154.29-36.25Q155.39-35.9 155.99-34.73 156.59-33.55 156.59-32.15L156.59-32.15Q156.59-30.9 156.04-29.73 155.49-28.55 154.29-27.78 153.09-27 151.04-27L151.04-27Q150.09-27 148.71-27.18 147.34-27.35 145.79-27.55L145.79-27.55Q145.24-24.55 144.66-20.38 144.09-16.2 143.71-11.4 143.34-6.6 143.24-1.65L143.24-1.65Q142.34-0.7 141.11-0.25 139.89 0.2 138.74 0.2Z" opacity="1" transform="matrix(1,0,0,1,0,0)" fill="black" class="wordmark-text-0" id="SvgjsPath1017"></path></svg></g></svg></g></svg></g></svg></g></svg></g></svg></g><g mask="url(#57e72462-cf26-475e-9b46-b448cb9b8add)"><g transform="matrix(2.5068242462658334, 0, 0, 2.5068242462658334, 102.89425004856207, 1.0000000000000142)"><svg xmlns="http://www.w3.org/2000/svg" xmlns:xlink="http://www.w3.org/1999/xlink" version="1.1" x="0" y="0" viewBox="12.983 1 75.68599999999999 97.813" enable-background="new 0 0 100 100" xml:space="preserve" height="97.813" width="75.68599999999999" class="icon-none" data-fill-palette-color="accent" id="SvgjsSvg1016"><g fill="white"><polygon fill-rule="evenodd" clip-rule="evenodd" points="12.983,10.59 30.001,98.813 24.129,39.764 53.15,37.872 53.096,27.989    64.549,1 53.622,18.977  " fill="white"></polygon><polygon fill-rule="evenodd" clip-rule="evenodd" points="59.389,54.548 64.549,1.007 55.809,40.723 36.197,41.768 37.767,62.23    30.001,98.813 42.058,58.914  " fill="white"></polygon><polygon fill-rule="evenodd" clip-rule="evenodd" points="62.8,67.182 63.349,56.729 47.37,60.484 47.338,72.281 30.001,98.813    51.681,71.197  " fill="white"></polygon><polygon fill-rule="evenodd" clip-rule="evenodd" points="65.711,62.394 80.552,57.663 82.061,45.131 66.162,47.226  " fill="white"></polygon><polygon fill-rule="evenodd" clip-rule="evenodd" points="72.07,44.502 83.058,43.085 84.639,32.807 76.56,32.434 64.549,1    72.979,31.967  " fill="white"></polygon><polygon fill-rule="evenodd" clip-rule="evenodd" points="87.413,31.294 88.669,21.788 79.125,19.094 64.549,1 79.032,23.437    78.61,30.437  " fill="white"></polygon></g></svg></g></g></svg></g><defs><mask></mask></defs></svg><rect width="395.52" height="247.2" fill="black" stroke="none" visibility="hidden"></rect></g></mask><linearGradient x1="0" x2="1" y1="0.548" y2="0.55" id="ec052b5f-b9e6-496c-a9cb-95efb17d9277"><stop stop-color="#ff6cab" offset="0"></stop><stop stop-color="#7366ff" offset="1"></stop></linearGradient><rect width="395.52" height="247.2" fill="url(#ec052b5f-b9e6-496c-a9cb-95efb17d9277)" mask="url(#2b937e03-37a1-45d4-bab0-215405f09a7f)" data-fill-palette-color="accent"></rect></svg><rect width="395.52" height="247.2" fill="none" stroke="none" visibility="hidden"></rect></g></svg></g></svg>